<mxfile host="Electron" modified="2023-11-16T17:06:02.450Z" agent="Mozilla/5.0 (Macintosh; Intel Mac OS X 10_15_7) AppleWebKit/537.36 (KHTML, like Gecko) draw.io/22.1.2 Chrome/114.0.5735.289 Electron/25.9.4 Safari/537.36" etag="vSLbIHRqhSHwd2cMFuFE" version="22.1.2" type="device">
  <diagram name="Page-1" id="VaUL9mnNX64eCgXieqcF">
    <mxGraphModel dx="1371" dy="1277" grid="1" gridSize="10" guides="1" tooltips="1" connect="1" arrows="1" fold="1" page="1" pageScale="1" pageWidth="850" pageHeight="1100" math="0" shadow="0">
      <root>
        <mxCell id="0" />
        <mxCell id="1" parent="0" />
        <mxCell id="BNl_1hiSp4-93MpEbIFA-1" value="&lt;font color=&quot;#030233&quot;&gt;AWS Cloud&lt;/font&gt;" style="sketch=0;outlineConnect=0;gradientColor=none;html=1;whiteSpace=wrap;fontSize=12;fontStyle=0;shape=mxgraph.aws4.group;grIcon=mxgraph.aws4.group_aws_cloud;strokeColor=#000033;fillColor=none;verticalAlign=top;align=left;spacingLeft=30;fontColor=#AAB7B8;dashed=0;" vertex="1" parent="1">
          <mxGeometry x="160" y="130" width="670" height="320" as="geometry" />
        </mxCell>
        <mxCell id="BNl_1hiSp4-93MpEbIFA-10" style="edgeStyle=orthogonalEdgeStyle;rounded=0;orthogonalLoop=1;jettySize=auto;html=1;" edge="1" parent="1" source="BNl_1hiSp4-93MpEbIFA-2" target="BNl_1hiSp4-93MpEbIFA-3">
          <mxGeometry relative="1" as="geometry" />
        </mxCell>
        <mxCell id="BNl_1hiSp4-93MpEbIFA-2" value="Route 53" style="sketch=0;points=[[0,0,0],[0.25,0,0],[0.5,0,0],[0.75,0,0],[1,0,0],[0,1,0],[0.25,1,0],[0.5,1,0],[0.75,1,0],[1,1,0],[0,0.25,0],[0,0.5,0],[0,0.75,0],[1,0.25,0],[1,0.5,0],[1,0.75,0]];outlineConnect=0;fontColor=#232F3E;fillColor=#8C4FFF;strokeColor=#ffffff;dashed=0;verticalLabelPosition=bottom;verticalAlign=top;align=center;html=1;fontSize=12;fontStyle=0;aspect=fixed;shape=mxgraph.aws4.resourceIcon;resIcon=mxgraph.aws4.route_53;" vertex="1" parent="1">
          <mxGeometry x="190" y="250.5" width="59" height="59" as="geometry" />
        </mxCell>
        <mxCell id="BNl_1hiSp4-93MpEbIFA-9" style="edgeStyle=orthogonalEdgeStyle;rounded=0;orthogonalLoop=1;jettySize=auto;html=1;" edge="1" parent="1" source="BNl_1hiSp4-93MpEbIFA-3" target="BNl_1hiSp4-93MpEbIFA-4">
          <mxGeometry relative="1" as="geometry" />
        </mxCell>
        <mxCell id="BNl_1hiSp4-93MpEbIFA-3" value="CloudFront" style="sketch=0;points=[[0,0,0],[0.25,0,0],[0.5,0,0],[0.75,0,0],[1,0,0],[0,1,0],[0.25,1,0],[0.5,1,0],[0.75,1,0],[1,1,0],[0,0.25,0],[0,0.5,0],[0,0.75,0],[1,0.25,0],[1,0.5,0],[1,0.75,0]];outlineConnect=0;fontColor=#232F3E;fillColor=#8C4FFF;strokeColor=#ffffff;dashed=0;verticalLabelPosition=bottom;verticalAlign=top;align=center;html=1;fontSize=12;fontStyle=0;aspect=fixed;shape=mxgraph.aws4.resourceIcon;resIcon=mxgraph.aws4.cloudfront;" vertex="1" parent="1">
          <mxGeometry x="330" y="250.5" width="59.5" height="59.5" as="geometry" />
        </mxCell>
        <mxCell id="BNl_1hiSp4-93MpEbIFA-8" style="edgeStyle=orthogonalEdgeStyle;rounded=0;orthogonalLoop=1;jettySize=auto;html=1;" edge="1" parent="1" source="BNl_1hiSp4-93MpEbIFA-4" target="BNl_1hiSp4-93MpEbIFA-5">
          <mxGeometry relative="1" as="geometry" />
        </mxCell>
        <mxCell id="BNl_1hiSp4-93MpEbIFA-4" value="API Gateway" style="sketch=0;points=[[0,0,0],[0.25,0,0],[0.5,0,0],[0.75,0,0],[1,0,0],[0,1,0],[0.25,1,0],[0.5,1,0],[0.75,1,0],[1,1,0],[0,0.25,0],[0,0.5,0],[0,0.75,0],[1,0.25,0],[1,0.5,0],[1,0.75,0]];outlineConnect=0;fontColor=#232F3E;fillColor=#8C4FFF;strokeColor=#ffffff;dashed=0;verticalLabelPosition=bottom;verticalAlign=top;align=center;html=1;fontSize=12;fontStyle=0;aspect=fixed;shape=mxgraph.aws4.resourceIcon;resIcon=mxgraph.aws4.api_gateway;" vertex="1" parent="1">
          <mxGeometry x="465.25" y="250.5" width="59.5" height="59.5" as="geometry" />
        </mxCell>
        <mxCell id="BNl_1hiSp4-93MpEbIFA-7" style="edgeStyle=orthogonalEdgeStyle;rounded=0;orthogonalLoop=1;jettySize=auto;html=1;" edge="1" parent="1" source="BNl_1hiSp4-93MpEbIFA-5" target="BNl_1hiSp4-93MpEbIFA-6">
          <mxGeometry relative="1" as="geometry" />
        </mxCell>
        <mxCell id="BNl_1hiSp4-93MpEbIFA-5" value="Lambda" style="sketch=0;points=[[0,0,0],[0.25,0,0],[0.5,0,0],[0.75,0,0],[1,0,0],[0,1,0],[0.25,1,0],[0.5,1,0],[0.75,1,0],[1,1,0],[0,0.25,0],[0,0.5,0],[0,0.75,0],[1,0.25,0],[1,0.5,0],[1,0.75,0]];outlineConnect=0;fontColor=#232F3E;fillColor=#ED7100;strokeColor=#ffffff;dashed=0;verticalLabelPosition=bottom;verticalAlign=top;align=center;html=1;fontSize=12;fontStyle=0;aspect=fixed;shape=mxgraph.aws4.resourceIcon;resIcon=mxgraph.aws4.lambda;" vertex="1" parent="1">
          <mxGeometry x="610" y="250.5" width="59.5" height="59.5" as="geometry" />
        </mxCell>
        <mxCell id="BNl_1hiSp4-93MpEbIFA-6" value="DynamoDB" style="sketch=0;points=[[0,0,0],[0.25,0,0],[0.5,0,0],[0.75,0,0],[1,0,0],[0,1,0],[0.25,1,0],[0.5,1,0],[0.75,1,0],[1,1,0],[0,0.25,0],[0,0.5,0],[0,0.75,0],[1,0.25,0],[1,0.5,0],[1,0.75,0]];outlineConnect=0;fontColor=#232F3E;fillColor=#0000FF;strokeColor=#ffffff;dashed=0;verticalLabelPosition=bottom;verticalAlign=top;align=center;html=1;fontSize=12;fontStyle=0;aspect=fixed;shape=mxgraph.aws4.resourceIcon;resIcon=mxgraph.aws4.dynamodb;" vertex="1" parent="1">
          <mxGeometry x="740" y="250" width="59.5" height="59.5" as="geometry" />
        </mxCell>
        <mxCell id="BNl_1hiSp4-93MpEbIFA-11" value="Cognito" style="sketch=0;points=[[0,0,0],[0.25,0,0],[0.5,0,0],[0.75,0,0],[1,0,0],[0,1,0],[0.25,1,0],[0.5,1,0],[0.75,1,0],[1,1,0],[0,0.25,0],[0,0.5,0],[0,0.75,0],[1,0.25,0],[1,0.5,0],[1,0.75,0]];outlineConnect=0;fontColor=#232F3E;fillColor=#DD344C;strokeColor=#ffffff;dashed=0;verticalLabelPosition=bottom;verticalAlign=top;align=center;html=1;fontSize=12;fontStyle=0;aspect=fixed;shape=mxgraph.aws4.resourceIcon;resIcon=mxgraph.aws4.cognito;" vertex="1" parent="1">
          <mxGeometry x="464.75" y="150" width="60" height="60" as="geometry" />
        </mxCell>
        <mxCell id="BNl_1hiSp4-93MpEbIFA-12" style="edgeStyle=orthogonalEdgeStyle;rounded=0;orthogonalLoop=1;jettySize=auto;html=1;entryX=0.5;entryY=0;entryDx=0;entryDy=0;entryPerimeter=0;" edge="1" parent="1" source="BNl_1hiSp4-93MpEbIFA-11" target="BNl_1hiSp4-93MpEbIFA-4">
          <mxGeometry relative="1" as="geometry" />
        </mxCell>
        <mxCell id="BNl_1hiSp4-93MpEbIFA-15" style="edgeStyle=orthogonalEdgeStyle;rounded=0;orthogonalLoop=1;jettySize=auto;html=1;" edge="1" parent="1" source="BNl_1hiSp4-93MpEbIFA-14" target="BNl_1hiSp4-93MpEbIFA-3">
          <mxGeometry relative="1" as="geometry" />
        </mxCell>
        <mxCell id="BNl_1hiSp4-93MpEbIFA-14" value="S3" style="sketch=0;points=[[0,0,0],[0.25,0,0],[0.5,0,0],[0.75,0,0],[1,0,0],[0,1,0],[0.25,1,0],[0.5,1,0],[0.75,1,0],[1,1,0],[0,0.25,0],[0,0.5,0],[0,0.75,0],[1,0.25,0],[1,0.5,0],[1,0.75,0]];outlineConnect=0;fontColor=#232F3E;fillColor=#7AA116;strokeColor=#ffffff;dashed=0;verticalLabelPosition=bottom;verticalAlign=top;align=center;html=1;fontSize=12;fontStyle=0;aspect=fixed;shape=mxgraph.aws4.resourceIcon;resIcon=mxgraph.aws4.s3;" vertex="1" parent="1">
          <mxGeometry x="329.5" y="360" width="60" height="60" as="geometry" />
        </mxCell>
        <mxCell id="BNl_1hiSp4-93MpEbIFA-20" style="edgeStyle=orthogonalEdgeStyle;rounded=0;orthogonalLoop=1;jettySize=auto;html=1;" edge="1" parent="1" source="BNl_1hiSp4-93MpEbIFA-17">
          <mxGeometry relative="1" as="geometry">
            <mxPoint x="190" y="280" as="targetPoint" />
            <Array as="points">
              <mxPoint x="80" y="280" />
            </Array>
          </mxGeometry>
        </mxCell>
        <mxCell id="BNl_1hiSp4-93MpEbIFA-17" value="Users" style="sketch=0;outlineConnect=0;fontColor=#232F3E;gradientColor=none;strokeColor=#232F3E;fillColor=#ffffff;dashed=0;verticalLabelPosition=bottom;verticalAlign=top;align=center;html=1;fontSize=12;fontStyle=0;aspect=fixed;shape=mxgraph.aws4.resourceIcon;resIcon=mxgraph.aws4.users;" vertex="1" parent="1">
          <mxGeometry x="50" y="160" width="60" height="60" as="geometry" />
        </mxCell>
        <mxCell id="BNl_1hiSp4-93MpEbIFA-18" value="Clients" style="sketch=0;outlineConnect=0;fontColor=#232F3E;gradientColor=none;strokeColor=#232F3E;fillColor=#ffffff;dashed=0;verticalLabelPosition=bottom;verticalAlign=top;align=center;html=1;fontSize=12;fontStyle=0;aspect=fixed;shape=mxgraph.aws4.resourceIcon;resIcon=mxgraph.aws4.client;" vertex="1" parent="1">
          <mxGeometry x="50" y="330" width="60" height="60" as="geometry" />
        </mxCell>
        <mxCell id="BNl_1hiSp4-93MpEbIFA-19" style="edgeStyle=orthogonalEdgeStyle;rounded=0;orthogonalLoop=1;jettySize=auto;html=1;entryX=0;entryY=0.5;entryDx=0;entryDy=0;entryPerimeter=0;" edge="1" parent="1" source="BNl_1hiSp4-93MpEbIFA-18" target="BNl_1hiSp4-93MpEbIFA-2">
          <mxGeometry relative="1" as="geometry">
            <Array as="points">
              <mxPoint x="80" y="280" />
            </Array>
          </mxGeometry>
        </mxCell>
        <mxCell id="BNl_1hiSp4-93MpEbIFA-21" value="&lt;h5 style=&quot;border-width: 0px; border-style: solid; box-sizing: border-box; border-color: var(--chakra-colors-gray-200); overflow-wrap: break-word; outline-color: var(--chakra-colors-blue-500); margin-top: 0px; margin-right: var(--chakra-space-2); margin-bottom: 0px; margin-left: 0px; font-family: &amp;quot;Open Sans&amp;quot;, sans-serif; line-height: var(--chakra-lineHeights-tall); text-align: start;&quot; class=&quot;chakra-heading css-16yofvr&quot;&gt;&lt;font style=&quot;font-size: 20px;&quot; color=&quot;#6e6e6e&quot;&gt;Udacity - Design, Provision and Monitor AWS Infrastructure at Scale - Part 2&lt;br&gt;&lt;/font&gt;&lt;/h5&gt;&lt;div&gt;&lt;font style=&quot;font-size: 20px;&quot; color=&quot;#6e6e6e&quot;&gt;Nguyen Thanh Duong - Nov 17 2023&lt;/font&gt;&lt;/div&gt;" style="text;html=1;strokeColor=none;fillColor=none;align=center;verticalAlign=middle;whiteSpace=wrap;rounded=0;" vertex="1" parent="1">
          <mxGeometry x="70" y="20" width="740" height="30" as="geometry" />
        </mxCell>
      </root>
    </mxGraphModel>
  </diagram>
</mxfile>
